<svg width="70" height="50" viewBox="0 0 70 50" fill="none" xmlns="http://www.w3.org/2000/svg">
<path d="M69.2925 23.8485C69.2925 20.0541 65.8532 16.9049 61.341 16.2975C61.6674 15.5253 61.8472 14.6972 61.8472 13.8359C61.8472 9.60622 57.5753 6.17598 52.306 6.17598C50.4564 6.17598 48.7307 6.6006 47.2679 7.33198C44.634 6.32256 41.6843 5.75588 38.5699 5.75588C35.4555 5.75588 32.3577 6.35278 29.6724 7.41207C27.983 6.19109 25.7465 5.44913 23.2955 5.44913C18.1531 5.44913 13.9643 8.71466 13.7633 12.8022C8.71464 14.2514 5.10004 18.1244 5.10004 22.6744C5.10004 23.5841 5.2451 24.4651 5.51559 25.3068C2.36944 25.8145 0 28.0434 0 30.7181C0 33.3928 2.1881 35.4479 5.15141 36.0629C5.11817 36.3244 5.10004 36.5888 5.10004 36.8563C5.10004 41.0859 9.37198 44.5146 14.6413 44.5146C17.6272 44.5146 20.2913 43.413 22.0412 41.6889C23.1051 42.0802 24.2142 42.4021 25.3672 42.6424C26.4174 44.6129 28.8534 45.9925 31.6928 45.9925C34.1604 45.9925 36.3213 44.9499 37.5348 43.3828C38.517 44.8955 40.489 45.9291 42.7617 45.9291C46.0167 45.9291 48.6551 43.812 48.6551 41.1992C48.6551 41.1872 48.6551 41.1766 48.6551 41.166C48.9845 41.1856 49.317 41.1992 49.6524 41.1992C56.6928 41.1992 62.4275 36.7278 62.6995 31.1306C66.5256 30.1333 69.2925 27.2501 69.2925 23.8455V23.8485Z" fill="url(#paint0_linear_1_12)"/>
<path d="M60.9662 18.7923C64.9117 19.3242 67.9173 22.076 67.9173 25.3944C67.9173 25.5349 67.9098 25.6755 67.8992 25.8145C68.0292 25.3445 68.1002 24.8564 68.1002 24.3532C68.1002 21.0756 65.1641 18.3495 61.2881 17.7738C61.2125 18.1229 61.1052 18.4629 60.9662 18.7923Z" fill="url(#paint1_linear_1_12)"/>
<path d="M53.8881 39.942L54.0302 39.8075L54.142 39.6473C54.6996 38.8464 56.4752 34.9825 55.8979 18.9026C55.6788 12.7765 55.5126 8.88842 55.0653 6.54467C54.8417 5.37506 54.2493 2.26668 50.9415 2.26668C50.2191 2.26668 49.4636 2.40722 48.5886 2.57193C48.572 2.57495 48.5539 2.57797 48.5357 2.581C48.6733 2.52811 48.8078 2.47673 48.9468 2.42384C49.3986 2.25157 50.0182 1.4265 49.8973 0.773694C49.8142 0.318847 49.4213 0.00151112 48.9438 0.00151112C48.77 0.00151112 48.5796 0.0423114 48.3635 0.125423C44.8562 1.47183 41.5891 2.76384 38.5941 3.98634C37.2205 2.98144 35.8574 2.72757 34.8389 2.72757C34.4476 2.72757 34.0471 2.76384 33.6452 2.83486C32.5435 3.0298 31.1956 3.5466 29.9384 4.77666C26.4356 3.32145 22.5203 1.76348 18.2498 0.123912C18.0338 0.0408003 17.8434 0 17.6681 0C17.189 0 16.7977 0.317336 16.7145 0.772183C16.5952 1.42499 17.2132 2.25006 17.6666 2.42233C21.9113 4.03016 25.3778 5.74831 28.19 7.15516C28.1175 7.29116 28.0449 7.42868 27.9754 7.57223C18.067 10.4555 16.7191 11.6084 16.2023 12.0512L15.69 12.4894L15.5631 13.1513C15.2019 15.0402 12.1736 31.8091 17.0243 38.6666C17.9476 39.9722 19.0931 40.8698 20.4425 41.3488L19.4572 47.8149L20.9124 48.3665C21.0696 48.4254 21.8977 48.7216 22.8376 48.7216C24.113 48.7216 25.1678 48.1564 25.7344 47.1727C26.0472 46.6287 26.1847 46.0167 26.3283 45.3684C26.5353 44.4361 26.765 43.4024 27.5085 42.3839C30.5398 42.6877 34.7407 43.0035 39.0822 43.0035C41.9216 43.0035 44.4089 42.8645 46.5018 42.591C47.8467 46.6121 47.9872 47.3601 47.9963 47.4205C48.1655 48.9392 49.3215 50 50.8085 50C51.9358 50 53.0525 49.3699 53.7944 48.3166C54.8673 46.7919 54.3445 42.5713 53.8821 39.9465C53.8836 39.945 53.8866 39.942 53.8881 39.9405V39.942ZM51.0034 37.3368C50.9369 37.3836 50.8644 37.4305 50.7843 37.4773L49.6102 38.1755L49.8806 39.5143C50.0302 40.2533 50.1542 40.9801 50.2524 41.6692C50.068 41.1146 49.861 40.4996 49.6298 39.8196L49.0918 38.2404L47.4523 38.5472C45.2929 38.9507 42.4762 39.1547 39.0822 39.1547C35.4328 39.1547 31.111 38.9053 26.9116 38.452L25.9868 38.3523L25.334 39.0157C25.0454 39.3088 24.787 39.6065 24.5573 39.9042L24.8126 38.2284L22.895 37.9488C22.6941 37.9186 22.4946 37.8899 22.3012 37.8612C21.4383 37.7297 20.7598 37.2809 20.1705 36.4452C17.0304 32.0071 18.2997 19.9226 19.2019 14.679C20.1539 14.1864 22.8013 13.0606 29.9006 11.0251L30.8012 10.7667L31.1533 9.89785C31.3074 9.51705 31.4737 9.16949 31.649 8.85366C31.8243 8.93526 31.9995 9.01535 32.1703 9.09242L32.9047 9.42336L33.2462 8.69348C33.284 8.61339 33.3278 8.50459 33.3822 8.36859L33.7101 9.06975L34.4445 8.73882C35.2001 8.39882 36.0252 8.01499 36.8956 7.6085C36.9802 7.69917 37.0648 7.79588 37.151 7.90317L37.9216 8.85971L39.1139 8.56202C42.9733 7.60094 46.3084 6.85898 48.0356 6.57791C48.4889 6.50387 48.9075 6.42529 49.2943 6.35427C49.9804 6.22582 50.5743 6.11551 50.9399 6.11551C50.9475 6.11551 50.9566 6.11551 50.9641 6.11551C51.6275 7.30779 51.8421 13.2676 52.0491 19.0386C52.5221 32.2035 51.3555 36.3893 51.0034 37.3353V37.3368Z" fill="white"/>
<path d="M22.9101 37.9352L21.5939 46.5683C21.5939 46.5683 23.4556 47.274 24.0646 46.2147C24.6751 45.1554 24.3532 42.1074 27.5629 39.6035C30.7725 37.1011 22.9101 37.775 22.9101 37.775" fill="#231F20"/>
<path d="M47.0004 38.0954C47.0004 38.0954 49.7824 46.0545 49.9093 47.209C50.0378 48.3635 51.4069 48.3635 52.2198 47.209C53.0328 46.0529 51.9206 38.18 50.8085 35.7411C49.6948 33.3021 47.0004 38.0939 47.0004 38.0939V38.0954Z" fill="#231F20"/>
<path d="M17.4549 13.514C17.4549 13.514 12.7055 38.3523 22.0125 39.7652C31.3195 41.1766 48.6475 42.2676 52.5628 38.5457C52.5628 38.5457 54.5741 35.658 53.9742 18.9706C53.3758 2.28331 53.1718 3.79141 47.7272 4.67844C42.0167 5.60929 20.1281 11.2246 17.4549 13.514Z" fill="#231F20"/>
<path d="M52.785 16.4138C52.3407 4.03471 52.1896 5.15294 48.1504 5.81179C43.9147 6.50237 43.3556 7.38033 47.212 6.7517C51.2512 6.09285 53.2292 28.7944 52.785 16.4153V16.4138Z" fill="url(#paint2_linear_1_12)"/>
<path d="M44.3922 20.4485C43.9812 7.5813 42.6937 10.3572 40.0991 10.7123C40.0991 10.7123 21.13 14.4766 19.291 16.2415C19.291 16.2415 16.027 35.395 22.4236 36.483C28.8201 37.5725 40.7323 38.4127 43.4221 35.5431C43.4221 35.5431 44.8048 33.3157 44.3922 20.4485Z" fill="#D0D2D3"/>
<path d="M29.7918 10.0248C31.389 10.392 33.0407 9.81626 34.6183 9.57145C36.3833 9.29643 38.0773 8.97758 39.7909 8.47136C38.7648 6.50237 36.9832 4.1979 33.9791 4.72982C31.2651 5.21036 29.8295 7.73091 29.0815 9.94017C29.3082 9.94168 29.5439 9.96888 29.7903 10.0248H29.7918Z" fill="#231F20"/>
<path d="M33.1163 7.00253C29.5681 5.47932 24.6192 3.44535 17.9552 0.887021C17.0606 0.542485 17.7754 1.58818 17.9552 1.65769C24.4606 4.12233 29.0921 6.81062 32.5043 8.34743C32.6176 8.10414 32.938 7.21107 33.1148 7.00253H33.1163Z" fill="#231F20"/>
<path d="M33.497 7.00253C37.0436 5.47932 41.994 3.44535 48.6581 0.887021C49.5527 0.542485 48.8379 1.58818 48.6581 1.65769C42.1527 4.12233 37.5226 6.45702 34.1105 7.99534C33.9957 7.75205 33.6753 7.21258 33.497 7.00404V7.00253Z" fill="#231F20"/>
<path d="M18.5022 41.4894C17.529 41.8415 16.4471 42.0409 15.3077 42.0409C11.0614 42.0409 7.61909 39.3164 7.61909 35.9556C7.61909 35.0142 7.88959 34.1227 8.37163 33.3263C7.40905 34.3433 6.83936 35.6051 6.83936 36.9726C6.83936 40.3334 10.2817 43.0594 14.5264 43.0594C16.163 43.0594 17.6771 42.6514 18.9238 41.9608C18.7636 41.8203 18.6216 41.6632 18.5022 41.4894Z" fill="url(#paint3_linear_1_12)"/>
<path d="M44.3922 20.4485C43.9812 7.5813 42.6937 10.3572 40.0991 10.7123C40.0991 10.7123 21.13 14.4766 19.291 16.2415C19.291 16.2415 17.7874 25.0725 18.824 31.0823C25.3098 30.9085 34.6001 28.5829 44.4678 24.3804C44.4617 23.1942 44.4391 21.8886 44.3922 20.447V20.4485Z" fill="url(#paint4_linear_1_12)"/>
<path d="M51.7287 15.8895C51.7287 17.5441 50.3884 18.8845 48.7337 18.8845C47.079 18.8845 45.7386 17.5426 45.7386 15.8895C45.7386 14.2363 47.0805 12.8944 48.7337 12.8944C50.3869 12.8944 51.7287 14.2363 51.7287 15.8895Z" fill="white"/>
<path d="M50.1889 22.9917C50.1889 23.7956 49.5376 24.4469 48.7352 24.4469C47.9328 24.4469 47.28 23.7956 47.28 22.9917C47.28 22.1878 47.9313 21.5365 48.7352 21.5365C49.5391 21.5365 50.1889 22.1878 50.1889 22.9917Z" fill="white"/>
<defs>
<linearGradient id="paint0_linear_1_12" x1="10.7275" y1="2.59915" x2="58.6058" y2="50.4775" gradientUnits="userSpaceOnUse">
<stop stop-color="#FF3B89"/>
<stop offset="1" stop-color="#0463EF"/>
</linearGradient>
<linearGradient id="paint1_linear_1_12" x1="61.9197" y1="16.6133" x2="69.3967" y2="28.5194" gradientUnits="userSpaceOnUse">
<stop stop-color="white" stop-opacity="0"/>
<stop offset="1" stop-color="white"/>
</linearGradient>
<linearGradient id="paint2_linear_1_12" x1="45.4727" y1="4.64822" x2="76.2074" y2="43.0232" gradientUnits="userSpaceOnUse">
<stop stop-color="white" stop-opacity="0"/>
<stop offset="1" stop-color="white"/>
</linearGradient>
<linearGradient id="paint3_linear_1_12" x1="13.2284" y1="34.239" x2="11.5601" y2="59.0139" gradientUnits="userSpaceOnUse">
<stop stop-color="white" stop-opacity="0"/>
<stop offset="1" stop-color="white"/>
</linearGradient>
<linearGradient id="paint4_linear_1_12" x1="24.8836" y1="11.1929" x2="39.5929" y2="34.6153" gradientUnits="userSpaceOnUse">
<stop stop-color="white" stop-opacity="0"/>
<stop offset="1" stop-color="white"/>
</linearGradient>
</defs>
</svg>
