<svg width="21" height="20" viewBox="0 0 21 20" fill="none" xmlns="http://www.w3.org/2000/svg">
<path d="M10.97 0C5.44997 0 0.969971 4.48 0.969971 10C0.969971 15.52 5.44997 20 10.97 20C16.49 20 20.97 15.52 20.97 10C20.97 4.48 16.5 0 10.97 0ZM9.71997 13.03C9.71997 13.51 9.51997 13.7 9.00997 13.7H7.70997C7.19997 13.7 6.99997 13.51 6.99997 13.03V6.97C6.99997 6.49 7.19997 6.3 7.70997 6.3H8.99997C9.50997 6.3 9.70997 6.49 9.70997 6.97V13.03H9.71997ZM15 13.03C15 13.51 14.8 13.7 14.29 13.7H13C12.49 13.7 12.29 13.51 12.29 13.03V6.97C12.29 6.49 12.49 6.3 13 6.3H14.29C14.8 6.3 15 6.49 15 6.97V13.03Z" fill="#231F20"/>
</svg>
